<?xml version="1.0" standalone="no"?>
<!DOCTYPE svg PUBLIC "-//W3C//DTD SVG 20010904//EN"
 "http://www.w3.org/TR/2001/REC-SVG-20010904/DTD/svg10.dtd">
<svg version="1.0" xmlns="http://www.w3.org/2000/svg"
 width="937.000000pt" height="517.000000pt" viewBox="0 0 937.000000 517.000000"
 preserveAspectRatio="xMidYMid meet">

<g transform="translate(0.000000,517.000000) scale(0.100000,-0.100000)"
fill="#000000" stroke="none">
<path d="M6127 3882 c-93 -62 -282 -320 -362 -497 -142 -311 -272 -771 -250
-887 5 -28 0 -41 -35 -88 -107 -144 -227 -240 -290 -234 -8 1 -23 2 -33 3 -11
0 -34 16 -52 34 -40 40 -65 121 -65 209 0 62 2 68 54 144 30 43 72 108 92 144
20 36 54 92 75 126 77 125 182 391 218 554 22 99 31 236 20 296 -13 69 -31 94
-71 94 -41 0 -206 -167 -272 -275 -27 -44 -56 -91 -65 -104 -29 -43 -56 -95
-80 -151 -13 -30 -33 -77 -46 -105 -12 -27 -25 -61 -29 -75 -4 -14 -11 -34
-16 -45 -20 -44 -70 -181 -70 -190 0 -5 -8 -39 -19 -75 -44 -149 -77 -334 -67
-381 18 -90 -158 -265 -287 -286 -24 -3 -40 1 -61 18 -27 21 -28 25 -24 88 4
57 15 86 77 210 39 79 71 156 71 170 0 14 -14 49 -30 76 -37 63 -37 82 0 123
17 18 30 41 30 51 0 10 -20 37 -45 60 -40 37 -49 41 -97 41 -109 0 -350 -105
-443 -193 -16 -15 -62 -53 -102 -83 -128 -97 -305 -314 -338 -415 -26 -76 -14
-213 26 -295 50 -105 155 -204 218 -204 20 0 100 55 136 94 27 29 88 98 156
176 31 36 70 81 87 100 23 26 34 32 42 23 9 -8 8 -24 -4 -66 -20 -70 -21 -188
-1 -227 37 -71 114 -97 191 -65 91 38 222 161 346 325 36 47 71 85 79 85 7 0
17 -17 21 -39 27 -131 193 -285 282 -262 84 21 261 191 374 359 36 54 69 94
73 90 4 -4 17 -40 28 -80 23 -77 59 -130 149 -217 l51 -49 67 7 c61 6 71 11
103 44 20 21 54 53 76 72 48 41 176 200 229 283 20 31 39 57 41 57 2 0 16 -24
29 -52 32 -68 101 -137 172 -173 46 -23 60 -26 75 -17 10 6 25 9 34 6 9 -4 15
-1 15 9 0 8 30 39 66 68 36 30 91 78 122 107 31 28 61 52 68 52 20 0 23 -38 5
-62 -9 -13 -22 -35 -28 -50 -18 -40 -147 -195 -201 -240 -41 -34 -125 -80
-187 -103 -11 -3 -94 -18 -185 -31 -189 -29 -228 -35 -440 -70 -85 -14 -193
-30 -240 -35 -47 -5 -128 -18 -180 -29 -52 -10 -162 -28 -245 -39 -82 -12
-175 -26 -205 -31 -68 -13 -301 -48 -395 -60 -38 -5 -90 -13 -115 -18 -25 -5
-52 -10 -60 -10 -36 0 -209 -26 -380 -57 -102 -18 -230 -41 -285 -51 -55 -9
-111 -22 -125 -29 -14 -7 -72 -61 -129 -120 l-105 -108 24 -19 c14 -11 32 -17
44 -14 12 3 53 8 91 11 39 3 102 12 140 20 39 7 106 18 150 25 44 6 105 15
135 20 30 5 84 14 120 19 131 20 417 64 505 78 122 19 202 30 315 42 52 6 104
15 115 20 11 5 74 17 140 26 161 23 366 53 440 65 33 6 112 17 175 26 63 8
131 19 150 24 19 5 94 16 165 25 267 33 493 84 590 133 155 78 408 287 495
408 19 27 71 87 115 134 132 141 223 259 256 332 13 30 5 78 -14 78 -7 0 -26
-12 -43 -27 -180 -161 -274 -211 -266 -141 2 15 15 56 28 90 14 35 41 110 61
168 19 58 42 118 49 133 37 70 88 277 79 317 -14 63 -34 90 -68 90 -27 0 -46
-15 -132 -103 -55 -57 -138 -157 -185 -221 -201 -278 -307 -398 -443 -501 -33
-25 -67 -45 -76 -45 -20 0 -41 39 -41 74 0 32 28 123 43 138 50 52 169 195
202 242 46 65 125 205 125 223 0 32 -31 43 -120 43 -85 0 -90 -1 -132 -33 -75
-57 -172 -194 -254 -358 -29 -57 -77 -226 -68 -240 6 -11 -23 -69 -36 -69 -5
0 -12 -9 -15 -21 -9 -28 -162 -182 -200 -201 -69 -36 -124 -31 -173 15 -30 28
-52 80 -52 123 0 19 -5 53 -11 76 -14 51 -4 73 92 208 33 47 64 95 69 107 5
12 20 39 34 61 87 139 189 396 242 612 23 95 26 302 5 340 -25 45 -58 52 -104
22z m-47 -365 c0 -106 -114 -411 -226 -604 -23 -40 -44 -43 -44 -5 0 109 165
562 233 639 26 30 37 21 37 -30z m-748 -109 c10 -65 -55 -263 -150 -460 -61
-125 -95 -178 -114 -178 -36 0 69 341 170 548 61 127 86 150 94 90z m-1075
-847 c-8 -59 -124 -223 -275 -387 -92 -99 -225 -184 -250 -159 -12 12 -7 138
7 178 28 83 184 224 371 335 148 89 155 90 147 33z"/>
<path d="M3930 3659 c-107 -4 -242 -15 -300 -23 -58 -9 -188 -27 -290 -41
-102 -15 -230 -35 -285 -47 -55 -11 -120 -23 -145 -27 -25 -4 -51 -11 -59 -15
-12 -8 -83 -29 -236 -72 -27 -8 -72 -25 -100 -37 -27 -13 -77 -34 -109 -47
-52 -20 -78 -34 -156 -80 -8 -4 -51 -26 -95 -47 -84 -41 -95 -47 -216 -125
-41 -26 -79 -48 -83 -48 -15 0 -62 -65 -82 -115 -48 -116 -44 -425 6 -541 17
-40 59 -79 110 -101 85 -38 233 -52 546 -52 281 0 382 -9 471 -43 56 -21 123
-85 123 -117 0 -11 4 -22 9 -26 13 -7 2 -213 -13 -246 -19 -45 -114 -116 -231
-174 -104 -51 -154 -71 -285 -115 -30 -11 -80 -28 -110 -39 -30 -11 -66 -20
-78 -21 -13 0 -38 -6 -55 -14 -18 -8 -48 -17 -67 -20 -19 -4 -89 -15 -155 -27
-139 -23 -663 -45 -780 -32 l-70 8 2 38 c2 36 1 37 -31 37 -45 0 -109 -24
-168 -61 -50 -33 -72 -68 -114 -187 -17 -47 -17 -55 -4 -79 37 -65 81 -76 355
-92 313 -19 763 15 930 71 33 11 99 24 147 28 47 5 95 13 106 19 12 6 32 11
46 11 14 0 27 4 31 9 3 5 20 12 38 16 60 12 163 46 277 93 149 61 171 73 310
164 76 49 89 63 114 114 58 119 67 159 71 319 4 170 -6 249 -43 318 -39 72
-155 154 -267 187 -22 6 -49 15 -60 20 -32 14 -272 59 -370 70 -49 5 -163 10
-253 10 -162 0 -230 9 -265 35 -14 10 -19 28 -19 79 -1 56 2 71 27 106 16 23
42 51 59 62 17 12 47 36 67 53 64 57 294 195 324 195 3 0 18 8 32 17 24 16
124 55 178 70 11 3 61 18 110 33 50 15 117 33 150 40 33 6 83 18 110 25 51 14
172 35 235 42 158 15 228 25 248 33 13 6 27 8 32 5 5 -3 30 -1 57 5 55 11 538
31 560 23 19 -8 15 -14 -48 -80 -68 -71 -93 -108 -85 -128 10 -27 41 -16 132
43 49 32 116 69 150 81 77 28 190 106 231 159 18 24 37 65 44 96 10 48 10 58
-5 80 -9 15 -25 26 -37 26 -11 0 -46 11 -79 25 -60 25 -187 45 -292 45 -31 0
-60 5 -63 10 -3 6 -14 9 -23 8 -9 0 -105 -5 -212 -9z"/>
</g>
</svg>
